<svg width="15" height="15" viewBox="0 0 15 15" fill="none" xmlns="http://www.w3.org/2000/svg">
<path d="M3.28125 7.03125H12.6562C12.7806 7.03125 12.8998 7.08064 12.9877 7.16854C13.0756 7.25645 13.125 7.37568 13.125 7.5C13.125 7.62432 13.0756 7.74355 12.9877 7.83146C12.8998 7.91936 12.7806 7.96875 12.6562 7.96875H3.28125C3.15693 7.96875 3.0377 7.91936 2.94979 7.83146C2.86189 7.74355 2.8125 7.62432 2.8125 7.5C2.8125 7.37568 2.86189 7.25645 2.94979 7.16854C3.0377 7.08064 3.15693 7.03125 3.28125 7.03125Z" fill="#241F34"/>
<path d="M3.47542 7.49998L7.36323 11.3869C7.45125 11.4749 7.5007 11.5943 7.5007 11.7187C7.5007 11.8432 7.45125 11.9626 7.36323 12.0506C7.27521 12.1386 7.15583 12.1881 7.03136 12.1881C6.90688 12.1881 6.7875 12.1386 6.69948 12.0506L2.48073 7.83186C2.43708 7.78831 2.40244 7.73659 2.37881 7.67964C2.35518 7.62269 2.34302 7.56164 2.34302 7.49998C2.34302 7.43832 2.35518 7.37727 2.37881 7.32033C2.40244 7.26338 2.43708 7.21165 2.48073 7.16811L6.69948 2.94936C6.7875 2.86134 6.90688 2.81189 7.03136 2.81189C7.15583 2.81189 7.27521 2.86134 7.36323 2.94936C7.45125 3.03738 7.5007 3.15675 7.5007 3.28123C7.5007 3.40571 7.45125 3.52509 7.36323 3.61311L3.47542 7.49998Z" fill="#241F34"/>
</svg>
