<svg width="23" height="21" viewBox="0 0 23 21" fill="none" xmlns="http://www.w3.org/2000/svg">
<path d="M8.62484 3.90217C9.49839 3.64847 10.4556 3.5 11.4998 3.5C15.5075 3.5 18.235 5.68712 19.8614 7.61629C20.6759 8.58246 21.0832 9.06552 21.0832 10.5C21.0832 11.9345 20.6759 12.4176 19.8614 13.3837C18.235 15.3128 15.5075 17.5 11.4998 17.5C7.49219 17.5 4.76463 15.3128 3.13827 13.3837C2.32376 12.4176 1.9165 11.9345 1.9165 10.5C1.9165 9.06552 2.32376 8.58246 3.13827 7.61629C3.59945 7.06925 4.14916 6.50147 4.7915 5.9687" stroke="#1C274C" stroke-width="2" stroke-linecap="round"/>
<path d="M14.375 10.5C14.375 11.9498 13.0879 13.125 11.5 13.125C9.91214 13.125 8.625 11.9498 8.625 10.5C8.625 9.05021 9.91214 7.875 11.5 7.875C13.0879 7.875 14.375 9.05021 14.375 10.5Z" stroke="#1C274C" stroke-width="2"/>
</svg>
