<svg width="29" height="29" viewBox="0 0 29 29" fill="none" xmlns="http://www.w3.org/2000/svg">
<g clip-path="url(#clip0_47_380)">
<path d="M14.5002 16.9166V19.3333C12.5773 19.3333 10.7333 20.0971 9.37364 21.4567C8.014 22.8164 7.25016 24.6604 7.25016 26.5833H4.8335C4.8335 24.0195 5.85195 21.5607 7.6648 19.7479C9.47765 17.935 11.9364 16.9166 14.5002 16.9166ZM14.5002 15.7083C10.4945 15.7083 7.25016 12.4639 7.25016 8.45825C7.25016 4.45263 10.4945 1.20825 14.5002 1.20825C18.5058 1.20825 21.7502 4.45263 21.7502 8.45825C21.7502 12.4639 18.5058 15.7083 14.5002 15.7083ZM14.5002 13.2916C17.1706 13.2916 19.3335 11.1287 19.3335 8.45825C19.3335 5.78784 17.1706 3.62492 14.5002 3.62492C11.8297 3.62492 9.66683 5.78784 9.66683 8.45825C9.66683 11.1287 11.8297 13.2916 14.5002 13.2916ZM25.3752 20.5416H26.5835V26.5833H16.9168V20.5416H18.1252V19.3333C18.1252 18.3718 18.5071 17.4498 19.1869 16.77C19.8667 16.0902 20.7888 15.7083 21.7502 15.7083C22.7116 15.7083 23.6336 16.0902 24.3134 16.77C24.9932 17.4498 25.3752 18.3718 25.3752 19.3333V20.5416ZM22.9585 20.5416V19.3333C22.9585 19.0128 22.8312 18.7054 22.6046 18.4788C22.378 18.2522 22.0706 18.1249 21.7502 18.1249C21.4297 18.1249 21.1223 18.2522 20.8957 18.4788C20.6691 18.7054 20.5418 19.0128 20.5418 19.3333V20.5416H22.9585Z" fill="#241F34"/>
</g>
<defs>
<clipPath id="clip0_47_380">
<rect width="29" height="29" fill="white"/>
</clipPath>
</defs>
</svg>
